<?xml version="1.0" encoding="utf-8"?>
<!-- Generator: Adobe Illustrator 16.0.4, SVG Export Plug-In . SVG Version: 6.00 Build 0)  -->
<!DOCTYPE svg PUBLIC "-//W3C//DTD SVG 1.1//EN" "http://www.w3.org/Graphics/SVG/1.1/DTD/svg11.dtd">
<svg version="1.1" id="Layer_1" xmlns="http://www.w3.org/2000/svg" xmlns:xlink="http://www.w3.org/1999/xlink" x="0px" y="0px"
	 width="512px" height="512px" viewBox="0 0 512 512" enable-background="new 0 0 512 512" xml:space="preserve">
<path fill="#1D1D1B" d="M255.999,316.789c-7.081-3.967-14.538-9.687-21.975-16.88c-11.608-11.229-22.637-25.635-31.888-41.663
	c-9.252-16.026-16.216-32.779-20.138-48.447c-2.514-10.039-3.736-19.359-3.631-27.473c6.061-3.603,13.411-6.792,21.761-9.432
	c-1.872-13.256-3.328-26.76-4.206-39.556c-0.414-6.037-0.683-11.769-0.836-17.181c-12.736,2.032-24.994,4.682-36.511,7.973
	c-18.642,5.327-34.901,12.071-47.969,19.838c-0.194,15.197,2.096,32.652,6.802,51.452c7.345,29.344,20.387,60.72,37.715,90.734
	c17.328,30.013,37.979,56.997,59.72,78.028c13.926,13.471,27.898,24.184,41.157,31.615V316.789z"/>
</svg>
