<?xml version="1.0" encoding="utf-8"?>
<!-- Generator: Adobe Illustrator 16.0.4, SVG Export Plug-In . SVG Version: 6.00 Build 0)  -->
<!DOCTYPE svg PUBLIC "-//W3C//DTD SVG 1.1//EN" "http://www.w3.org/Graphics/SVG/1.1/DTD/svg11.dtd">
<svg version="1.1" id="Layer_1" xmlns="http://www.w3.org/2000/svg" xmlns:xlink="http://www.w3.org/1999/xlink" x="0px" y="0px"
	 width="512px" height="512px" viewBox="0 0 512 512" enable-background="new 0 0 512 512" xml:space="preserve">
<g id="XMLID_1_">
	<g>
		<path fill="#1D1D1B" d="M450.85,114.71c8.881,51.63-8.68,124.86-49.859,196.2C359.79,382.25,305.16,434.08,256,452.2
			c-49.16-18.13-103.79-69.95-144.98-141.29c-41.19-71.34-58.76-144.57-49.87-196.2h0.01c20.14-16.75,48.25-30.48,81.63-40.02
			S214.81,59.8,256,59.8c41.19,0,79.84,5.35,113.22,14.89S430.72,97.96,450.85,114.71z M394.59,195.42c4.71-18.8,7-36.26,6.8-51.45
			c-13.06-7.77-29.319-14.51-47.949-19.84c-11.521-3.29-23.78-5.94-36.521-7.97c-0.16,5.41-0.43,11.14-0.84,17.18
			c-0.88,12.79-2.33,26.3-4.2,39.55c8.34,2.64,15.7,5.83,21.75,9.44c0.11,8.11-1.11,17.43-3.62,27.47
			c-3.93,15.67-10.89,32.42-20.14,48.45c-9.26,16.02-20.28,30.43-31.89,41.66c-7.44,7.189-14.9,12.92-21.98,16.88
			c-7.08-3.97-14.54-9.69-21.98-16.88c-11.6-11.23-22.63-25.641-31.88-41.66c-9.26-16.03-16.22-32.78-20.14-48.45
			c-2.52-10.04-3.74-19.36-3.63-27.47c6.06-3.61,13.41-6.8,21.76-9.44c-1.87-13.25-3.33-26.76-4.21-39.55
			c-0.41-6.04-0.68-11.77-0.84-17.18c-12.73,2.03-24.99,4.68-36.51,7.97c-18.64,5.33-34.9,12.07-47.96,19.84
			c-0.2,15.2,2.09,32.65,6.8,51.45c7.34,29.35,20.38,60.72,37.71,90.74c17.33,30.01,37.98,56.99,59.72,78.02
			c13.93,13.48,27.9,24.19,41.16,31.62c13.26-7.43,27.23-18.14,41.16-31.62c21.74-21.029,42.39-48.01,59.72-78.02
			C374.21,256.14,387.25,224.77,394.59,195.42z"/>
	</g>
	<g>
	</g>
</g>
</svg>
